<svg xmlns="http://www.w3.org/2000/svg" xmlns:xlink="http://www.w3.org/1999/xlink" version="1.1" id="Layer_1" x="0px" y="0px" viewBox="0 0 389.5 229.5" enable-background="new 0 0 389.5 229.5" xml:space="preserve">
<g>
	<g>
		<path fill="#95AE47" d="M124.7,113.9h-10.8V171h-8.4v-57.1h-9.2v-7.4h8.3c-0.8-1.6-1.5-3.2-2-4.9c-0.5-1.7-0.8-3.6-0.8-5.7    c0-2.7,0.5-5.1,1.6-7.3c1-2.2,2.5-4.1,4.4-5.6c1.9-1.6,4.2-2.8,6.9-3.6c2.7-0.9,5.7-1.3,9.1-1.3c4.9,0,9.5,0.7,13.8,2.1    c4.3,1.4,8.4,3.3,12.1,5.9c3.8,2.5,7.3,5.6,10.5,9.2s6.2,7.6,9,12.1h-8.7c-10.6-14.5-22.3-21.7-35-21.7c-2.4,0-4.6,0.3-6.5,0.8    c-1.9,0.5-3.6,1.3-4.9,2.3c-1.4,1-2.4,2.2-3.1,3.6c-0.7,1.4-1.1,3-1.1,4.7c0,2.1,0.3,3.9,1,5.4s1.4,2.9,2.2,4.1h11.4V113.9z"/>
		<path fill="#95AE47" d="M156.5,163.8c2.8-0.8,5-1.8,6.4-3.2s2.1-3,2.1-5c0-5.5-4.3-8.3-12.8-8.3c-4.7,0-8.4,1-10.9,2.9    c-2.6,1.9-3.8,4.6-3.8,8c0,1.6,0.2,3.1,0.7,4.5c0.5,1.4,1.3,2.8,2.4,4.3c1.1,1.5,2.8,3.3,5,5.3s5.3,4.7,9.4,8l-5.6,5.4    c-3.7-3.1-6.6-5.6-8.4-7.3c-1.9-1.7-3.6-3.5-5.1-5.2c-1.6-1.8-2.8-3.5-3.8-5.2c-1-1.7-1.7-3.4-2.2-5.1c-0.5-1.7-0.7-3.5-0.7-5.5    c0-2.7,0.6-5.2,1.8-7.3c1.2-2.1,2.8-3.9,4.7-5.4c-3.5-2.9-5.3-6.3-5.3-10.3c0-2.1,0.4-3.9,1.3-5.4c0.8-1.5,2-2.7,3.4-3.6    c1.4-0.9,3.1-1.6,4.9-2.1c1.9-0.4,4.2-0.7,7-0.7h13.7v-8.9h-37.5v-7.4h56.6v7.4H169v16.3h-22.3c-2.2,0-3.8,0.1-4.8,0.4    c-1.1,0.3-1.9,0.8-2.6,1.6c-0.6,0.8-1,1.8-1,2.9c0,2.6,1.6,4.7,4.8,6.2c3-0.9,6.1-1.3,9.5-1.3c4.3,0,7.9,0.7,11,2    c3.1,1.3,5.4,3.1,7,5.5c1.6,2.3,2.4,5,2.4,7.8c0,3.9-1.2,7.2-3.5,9.8s-5.8,4.6-10.4,5.8L156.5,163.8z"/>
		<path fill="#95AE47" d="M178.3,113.9v-7.4h38.7v7.4H178.3z M199.5,140.1v5.6c0,1.9-0.5,3.3-1.4,4.3c-0.9,1-2.2,1.5-3.9,1.5    c-1.6,0-3.4-0.7-5.3-2.2c-1.9-1.4-3.5-3.2-4.8-5.3c-1.3-2.1-1.9-4.1-1.9-5.9c0-3.5,2.1-5.3,6.3-5.3h29.8v7.4H199.5z"/>
		<path fill="#95AE47" d="M253.2,177c-1.5-2.3-2.9-4.8-4.2-7.3c-1.4-2.5-2.4-4.6-3.2-6.3c-1.9,0.3-3.8,0.5-5.7,0.5    c-3.1,0-6-0.4-8.7-1.1c-2.7-0.7-5.1-1.7-7.1-2.9c-2-1.2-3.7-2.7-5-4.4c-1.3-1.7-2.3-3.5-3-5.6c-0.7-2.1-1.1-4.5-1.1-7.1    c0-1.9,0.2-3.7,0.6-5.3c0.4-1.6,1.1-3.2,2.1-4.7c1-1.5,2.2-2.9,3.7-4c1.5-1.1,3.1-2.1,5-2.8c1.8-0.7,3.9-1.3,6.3-1.7    s4.8-0.6,7.5-0.6h0.5v-9.9h-30.6v-7.4h55.4v7.4h-16.5V131h-5c-5.3,0-9.4,0.5-12.2,1.4c-2.8,0.9-4.9,2.3-6.4,4.2    c-1.5,1.9-2.2,4.3-2.2,7.2c0,2.5,0.6,4.7,1.8,6.6c1.2,1.9,3.1,3.4,5.6,4.5c2.5,1.1,5.6,1.6,9.2,1.6c0.7,0,1.6-0.1,2.6-0.2    c-0.2-0.6-0.4-1.2-0.5-1.9c-0.1-0.7-0.1-1.2-0.1-1.7c0-2.1,0.6-3.8,2-4.9c1.3-1.1,3-1.7,5-1.7c1.9,0,3.6,0.4,5,1.2    c1.4,0.8,2.4,1.8,3.1,3.1c0.7,1.2,1,2.5,1,3.9c0,1.9-0.4,3.5-1.2,4.8c-0.8,1.3-2.2,2.3-4.1,3c2,3.8,4.4,7.6,7.3,11.5L253.2,177z"/>
		<path fill="#95AE47" d="M292.6,113.9h-10.8V171h-8.4v-57.1h-9.2v-7.4h8.9c-1.3-3.6-2.7-6.7-4-9.4c-1.4-2.7-2.8-4.8-4.3-6.6    c-1.5-1.7-3.1-3-4.9-3.9c-1.7-0.8-3.7-1.3-5.8-1.3c-3.2,0-5.7,0.9-7.4,2.7c-1.7,1.8-2.6,4.2-2.6,7.3c0,2.3,0.3,4.4,1,6.3    c0.7,1.9,1.5,3.7,2.5,5.6h-8.3c-1.2-2.2-2.1-4.4-2.7-6.6c-0.6-2.1-0.9-4.4-0.9-6.7c0-2.3,0.4-4.5,1.2-6.4c0.8-2,1.9-3.6,3.4-5.1    c1.5-1.4,3.3-2.5,5.5-3.3c2.2-0.8,4.7-1.2,7.4-1.2c3.4,0,6.4,0.6,9.1,1.7c2.7,1.1,5.2,2.9,7.4,5.2c2.2,2.3,4.2,5.3,6.1,8.9    c1.8,3.6,3.6,7.8,5.2,12.7h11.4V113.9z"/>
	</g>
	<g>
		<path fill="#9C9082" d="M322.2,109.4h-4.5v23.7h-3.5v-10.7h-9.5v1.6c0,0.8-0.2,1.5-0.6,2c-0.4,0.5-0.9,0.7-1.5,0.7    c-0.7,0-1.4-0.3-2.2-0.9c-0.8-0.6-1.5-1.3-2.1-2.2c-0.6-0.9-0.9-1.7-0.9-2.4c0-0.6,0.2-1.1,0.7-1.4c0.4-0.3,1.1-0.5,2-0.5h1.2    v-9.9h-5.5v-3.1h26.3V109.4z M314.3,119.3v-9.9h-9.5v9.9H314.3z"/>
		<path fill="#9C9082" d="M339.8,109.4h-4.5c0.5,1.1,0.7,2.4,0.7,4c0,1.2-0.2,2.2-0.6,3.1c-0.4,0.9-0.9,1.7-1.5,2.4    c-0.7,0.7-1.4,1.3-2.3,1.8c-0.9,0.5-1.9,1-2.9,1.4c1.2,1.4,2.6,2.9,4.3,4.5c1.7,1.6,3.5,3.1,5.5,4.7l-2.3,2.3    c-1.2-1-2.4-2-3.6-3.2c-1.2-1.1-2.5-2.3-3.7-3.6c-1.3-1.3-2.3-2.5-3.1-3.5c-0.8-1-1.4-1.8-1.7-2.4c-0.3-0.6-0.5-1-0.7-1.4    c-0.1-0.4-0.2-0.7-0.2-1.2c0-0.4,0.1-0.7,0.3-1.1c0.2-0.3,0.5-0.6,0.9-0.9c0.4-0.2,0.9-0.3,1.6-0.3c0.7,0,1.4,0.2,1.9,0.5    c0.5,0.3,1,0.8,1.5,1.4c1.1-0.6,1.9-1.3,2.4-2.1c0.5-0.8,0.8-1.8,0.8-3c0-0.6-0.1-1.2-0.2-1.8c-0.1-0.7-0.3-1.2-0.5-1.7h-10.3    v-3.1h18.2V109.4z"/>
		<path fill="#9C9082" d="M350.9,109.4h-4.5v23.7H343v-23.7h-3.8v-3.1h11.8V109.4z"/>
		<path fill="#9C9082" d="M376.1,109.4h-9.8v5.9c2.4,1,4.2,2.3,5.4,3.9c1.2,1.6,1.8,3.4,1.8,5.4c0,1.8-0.4,3.4-1.3,4.7    c-0.9,1.3-2.1,2.3-3.7,2.9c-1.6,0.6-3.4,1-5.4,1c-2,0-3.9-0.4-5.5-1.2c-1.7-0.8-3-1.9-3.9-3.3s-1.4-3.1-1.4-4.9    c0-1.7,0.4-3.2,1.3-4.5c0.9-1.3,2.1-2.3,3.8-3s3.4-1.1,5.2-1.1h0.1v-5.6h-12.5v-3.1h25.8V109.4z M365,118.1h-1.5    c-1.6,0-2.9,0.2-4.1,0.7s-2.1,1.1-2.7,2s-1,2-1,3.2c0,1.1,0.2,2,0.5,2.7c0.4,0.8,0.9,1.4,1.5,1.9s1.4,0.9,2.3,1.1s1.8,0.4,2.8,0.4    c2.3,0,4-0.5,5.2-1.4c1.2-0.9,1.9-2.3,1.9-4.1c0-1.4-0.4-2.6-1.3-3.7C367.9,119.7,366.7,118.8,365,118.1z"/>
		<path fill="#9C9082" d="M387.2,109.4h-4.5v23.7h-3.5v-23.7h-3.8v-3.1h3.6c-0.7-1.5-1.4-2.8-2.1-3.9s-1.5-2-2.2-2.7    c-0.8-0.7-1.6-1.3-2.5-1.6c-0.9-0.3-1.8-0.5-2.8-0.5c-1.5,0-2.7,0.4-3.5,1.2c-0.8,0.8-1.2,1.8-1.2,3.1c0,1,0.1,1.8,0.4,2.6    s0.6,1.5,1,2.2h-3.5c-0.5-0.9-0.8-1.7-1.1-2.6c-0.2-0.8-0.4-1.7-0.4-2.7c0-1,0.2-1.9,0.5-2.8c0.4-0.8,0.9-1.6,1.5-2.2    s1.5-1.1,2.4-1.4c1-0.3,2-0.5,3.2-0.5c1.6,0,3,0.2,4.3,0.7c1.3,0.5,2.5,1.2,3.5,2.2c1.1,1,2.1,2.2,3,3.7c0.9,1.5,1.8,3.2,2.6,5.2    h4.7V109.4z"/>
	</g>
	<g>
		<path fill="#6C98AC" d="M18,160.5v-2.1H35v2.1h-3.1V177h-2.4V168h-5.4v1.6c0,0.5-0.1,0.9-0.4,1.2c-0.3,0.3-0.6,0.4-1.1,0.4    c-0.5,0-1-0.2-1.5-0.6c-0.6-0.4-1-0.9-1.4-1.5c-0.4-0.6-0.6-1.2-0.6-1.7c0-1,0.6-1.5,1.8-1.5h8.6v-5.4H18z"/>
		<path fill="#6C98AC" d="M29.5,158.5c-0.4-1.6-0.8-2.9-1.3-3.8c-0.4-0.9-0.9-1.5-1.3-1.9c-0.5-0.4-1.1-0.6-1.8-0.6    c-0.3,0-0.7,0-1,0.1c-0.3,0.1-0.7,0.2-1.1,0.3l-0.7-2.2c0.4-0.2,0.9-0.3,1.3-0.3c0.4-0.1,0.9-0.1,1.4-0.1c0.8,0,1.6,0.1,2.2,0.4    c0.6,0.3,1.2,0.7,1.7,1.4c0.5,0.6,1,1.5,1.5,2.6c0.5,1.1,0.9,2.4,1.3,4.1H29.5z"/>
		<path fill="#6C98AC" d="M52.1,160.5h-3.1V177h-2.4v-5.7c-0.8,0.5-1.5,0.8-2.2,1c-0.7,0.2-1.4,0.3-2.2,0.3c-0.8,0-1.6-0.1-2.3-0.4    s-1.3-0.7-1.7-1.2c-0.5-0.5-0.8-1.2-1-1.9s-0.3-1.7-0.3-2.8v-5.8h-2.4v-2.1h17.5V160.5z M39.4,160.5v5.5c0,1,0,1.7,0.1,2.1    s0.2,0.8,0.3,1.1c0.2,0.3,0.3,0.5,0.6,0.7c0.2,0.2,0.5,0.3,0.8,0.4c0.3,0.1,0.8,0.1,1.2,0.1c0.7,0,1.4-0.2,2.1-0.5    c0.7-0.3,1.4-0.8,2-1.4v-8H39.4z"/>
		<path fill="#6C98AC" d="M59.8,160.5h-3.1V177h-2.4v-16.5h-2.7v-2.1h8.2V160.5z"/>
		<path fill="#6C98AC" d="M74.4,164.2h0.1c0,0,0.1,0,0.1,0v-3.8H59.4v-2.1h20.8v2.1H77V177h-2.4v-10.6c-0.1,0-0.2,0-0.5,0    c-1,0-1.8,0.4-2.5,1.1s-1.2,1.8-1.7,3.3l-2.3-0.7c0.2-0.9,0.6-1.7,0.9-2.4c-0.6-0.4-1.1-0.7-1.6-0.9c-0.5-0.2-1-0.3-1.4-0.3    c-0.8,0-1.4,0.2-1.8,0.7c-0.4,0.4-0.7,1-0.7,1.8c0,0.3,0,0.5,0.1,0.8s0.1,0.5,0.3,0.8c0.1,0.3,0.3,0.6,0.5,0.9    c0.2,0.3,0.5,0.7,0.9,1.1c0.4,0.4,0.9,0.9,1.5,1.4c0.6,0.5,1.3,1.2,2.2,1.9l-1.6,1.6c-1.1-0.9-2-1.7-2.6-2.3    c-0.6-0.6-1.2-1.1-1.6-1.7c-0.5-0.6-0.9-1.1-1.2-1.6c-0.3-0.5-0.5-1-0.7-1.5c-0.1-0.5-0.2-1-0.2-1.5c0-0.9,0.2-1.7,0.6-2.4    c0.4-0.7,1-1.2,1.7-1.6c0.7-0.4,1.5-0.6,2.4-0.6c0.8,0,1.6,0.1,2.3,0.4c0.7,0.3,1.5,0.7,2.2,1.3C71.2,164.8,72.6,164.2,74.4,164.2    z"/>
		<path fill="#6C98AC" d="M74.2,158.5c-0.4-0.7-0.6-1.4-0.8-2s-0.3-1.3-0.3-2c0-0.9,0.2-1.6,0.6-2.3c0.4-0.7,0.9-1.2,1.6-1.6    c0.7-0.4,1.6-0.6,2.6-0.6c1.2,0,2.1,0.3,2.9,0.8c0.8,0.5,1.5,1.4,2,2.5c0.6,1.1,1.2,2.8,1.7,4.9h3.3v2.1h-3.1V177h-2.4v-16.5h-2.7    v-2.1h2.6c-0.4-1.5-0.8-2.7-1.2-3.6c-0.4-0.8-0.8-1.5-1.3-1.9c-0.5-0.4-1.1-0.6-1.8-0.6c-0.8,0-1.4,0.2-1.8,0.7    c-0.4,0.5-0.6,1.2-0.6,2c0,0.5,0.1,1.1,0.2,1.6s0.4,1.2,0.8,1.9H74.2z"/>
	</g>
	<g>
		<path fill="#4E9891" d="M238.1,198.4c-5.8,0-10.9-2.7-10.9-9.4c0-3.3,1.2-6.1,3.2-8.6c2.3-2.5,4.8-4.1,7.1-4.1    c2.9,0,5.6,2,7.5,5.6c1.9,3.4,3.2,8.2,3.2,13.7c0,4.6-1.1,9-3.8,13.1c-4.4,6.7-8.7,9.5-12.8,9.5c-4.6,0-9.3-1.5-14.3-4.9l0.7-1.6    c2.4,1.2,4.8,1.7,7.3,1.7c5,0,10.1-2.5,14.7-7.6c2.2-2.4,4.3-5.4,4.7-8.3C242.6,198.1,240.3,198.4,238.1,198.4z M235.9,182.6    c-2.3,0-5.6,2.6-5.6,4.4c0,3.1,4.4,5.3,8.5,5.3c1.9,0,3.8-0.2,5.6-0.6C243.1,186.6,240.2,182.6,235.9,182.6z"/>
		<path fill="#4E9891" d="M259,190.1c0.1,4.3,1.9,7.7,8.2,7.7c3.9,0,7.2-1.2,10.8-3.2c0.6-0.3,1-0.8,1-1.2c0-2.7-1.7-6.2-4.7-9.5    c-2.8-3-6.6-5.7-10.2-7.5c-1.2-0.6-1.6-1.2-1.6-1.8c0-1.2,1.4-3.8,2.5-5.7l0.4,0c4,2.5,8.6,6.2,11.9,10.3c3,3.8,4.9,7.6,4.9,11.8    c0,3.1-0.8,6-2.1,8.7c-4.4,2.6-9.2,4.6-13.9,4.6c-5.7,0-9.6-3.1-9.6-10.5c0-0.8,0-2,0.2-3.6H259z"/>
		<path fill="#4E9891" d="M299.4,177.9l3.5,6.7c1.3,2.5,2.5,5.2,2.5,9.5v5.5c0,4.4-2.4,9.2-6.3,13.9c-3,3.2-5.7,4.5-8.2,4.5    c-3.7,0-7.9-1.3-12.8-3.8l0.5-1.7c1.5,0.5,3.3,0.9,5.5,0.9c7,0,14.2-6.1,17.5-13.5c0.4-0.8,0.5-1.6,0.5-2.2c0-0.8-0.4-1.8-0.7-2.6    c-1.8-4-3.8-7.6-6-11c1.1-2.1,2.3-4.2,3.5-6.2L299.4,177.9z"/>
		<path fill="#4E9891" d="M315,204.5c0.5-3.1,0.5-6.7,0.5-10v-4.9c0-9.1-1-22.4-1.8-31c1.4-1.8,3.3-3.9,4.9-5.3l0.4,0.2    c1,10.9,1.3,23.5,1.3,35.1c0,3-0.1,6-0.3,8.2c-0.2,2.7-1.5,4.8-4.4,8L315,204.5z"/>
	</g>
	<g>
		<path fill="#487639" d="M312.6,96.5c-0.1,0-0.1,0.1-0.2,0.1s-0.1,0-0.2,0c-0.2,0-0.3,0-0.4-0.1s-0.1-0.2-0.1-0.3    c0-0.1,0.1-0.3,0.2-0.3c0.1-0.1,0.2-0.1,0.4-0.1c0.1,0,0.2,0,0.3,0l0,0.3c0,0-0.1,0-0.2,0c-0.1,0-0.1,0-0.2,0c0,0-0.1,0.1-0.1,0.1    c0,0.1,0,0.1,0.1,0.1s0.1,0,0.2,0c0.1,0,0.2-0.1,0.3-0.2v-0.7h-1v-0.3h2.2v0.3h-0.8v0.4c0.1,0,0.2-0.1,0.3-0.1    c0.1,0,0.2,0,0.3,0.1c0.1,0.1,0.1,0.2,0.1,0.3c0,0.1,0,0.2,0,0.3c0,0.1-0.1,0.2-0.1,0.3l-0.3-0.2c0.1-0.1,0.1-0.2,0.1-0.3    c0-0.1,0-0.2-0.1-0.2c-0.1,0-0.1,0-0.2,0.1v0.7h-0.4V96.5z"/>
		<path fill="#487639" d="M314,95.3c-0.1-0.2-0.1-0.3-0.1-0.4c0-0.1-0.1-0.1-0.2-0.1c-0.1,0-0.1,0-0.2,0l-0.1-0.3    c0.1,0,0.2-0.1,0.3-0.1c0.1,0,0.2,0,0.2,0c0.1,0,0.1,0.1,0.2,0.1c0.1,0.1,0.1,0.1,0.1,0.2c0,0.1,0.1,0.2,0.1,0.4H314z M314.6,95.5    h-0.2v1.3H314v-1.3h-0.2v-0.3h0.8V95.5z M314.4,94.5c0.1,0,0.1,0,0.1,0.1c0,0,0.1,0.1,0.1,0.1s0,0.1-0.1,0.1c0,0-0.1,0.1-0.1,0.1    c-0.1,0-0.1,0-0.1-0.1c0,0-0.1-0.1-0.1-0.1s0-0.1,0.1-0.1C314.3,94.5,314.3,94.5,314.4,94.5z"/>
		<path fill="#487639" d="M315.5,96.5c-0.1,0-0.1,0.1-0.2,0.1s-0.1,0-0.2,0c-0.2,0-0.3,0-0.4-0.1s-0.1-0.2-0.1-0.3    c0-0.1,0.1-0.3,0.2-0.3c0.1-0.1,0.2-0.1,0.4-0.1c0.1,0,0.2,0,0.3,0l0,0.3c0,0-0.1,0-0.2,0c-0.1,0-0.1,0-0.2,0c0,0-0.1,0.1-0.1,0.1    c0,0.1,0,0.1,0.1,0.1s0.1,0,0.2,0c0.1,0,0.2-0.1,0.3-0.2v-0.7h-1v-0.3h2.2v0.3h-0.8v0.4c0.1,0,0.2-0.1,0.3-0.1    c0.1,0,0.2,0,0.3,0.1c0.1,0.1,0.1,0.2,0.1,0.3c0,0.1,0,0.2,0,0.3c0,0.1-0.1,0.2-0.1,0.3l-0.3-0.2c0.1-0.1,0.1-0.2,0.1-0.3    c0-0.1,0-0.2-0.1-0.2c-0.1,0-0.1,0-0.2,0.1v0.7h-0.4V96.5z"/>
		<path fill="#487639" d="M317.9,95.5v0.5c0,0.1,0,0.2-0.1,0.3c0,0.1-0.1,0.1-0.2,0.2c-0.1,0-0.2,0.1-0.3,0.1c-0.1,0-0.2,0-0.3-0.1    c-0.1,0-0.1-0.1-0.2-0.2c0-0.1-0.1-0.2-0.1-0.4v-0.4h-0.2v-0.3h2.1v0.3h-0.2v1.3h-0.4v-1.3H317.9z M317.6,95.5h-0.4V96    c0,0.1,0,0.1,0,0.1c0,0,0,0.1,0,0.1s0,0,0.1,0.1c0,0,0.1,0,0.1,0c0,0,0.1,0,0.1,0c0,0,0,0,0.1,0c0,0,0,0,0-0.1c0,0,0-0.1,0-0.1    V95.5z"/>
		<path fill="#487639" d="M319.6,95.2v0.3h-0.2v1.3H319v-1.3h-0.2v-0.3h0.2c0-0.1-0.1-0.3-0.2-0.3c-0.1-0.1-0.1-0.1-0.2-0.1    c-0.1,0-0.1,0-0.1,0s0,0.1,0,0.1c0,0.1,0,0.2,0.1,0.3l-0.3,0c-0.1-0.1-0.1-0.2-0.1-0.3c0-0.1,0-0.2,0.1-0.3    c0.1-0.1,0.2-0.1,0.4-0.1c0.2,0,0.3,0.1,0.4,0.2c0.1,0.1,0.2,0.3,0.3,0.5H319.6z"/>
	</g>
	<g>
		<path fill="#0B4DA0" d="M243.3,42.8c-1.1,0-2-0.3-2.9-0.8s-1.7-1.4-2.4-2.5l1.7-1.1c0.6,0.9,1.1,1.5,1.6,1.9    c0.5,0.4,1.1,0.6,1.8,0.6c0.8,0,1.4-0.3,1.8-0.9s0.6-1.5,0.6-2.6c0-1.3-0.2-2.2-0.7-2.9c-0.5-0.6-1.2-1-2.2-1    c-1,0-1.9,0.2-2.9,0.7l-0.7-1.8c0.5-0.3,1.1-0.5,1.7-0.6c0.7-0.2,1.3-0.2,1.9-0.2c1.6,0,2.8,0.5,3.7,1.5c0.9,1,1.3,2.4,1.3,4.3    c0,1.8-0.4,3.1-1.1,4C245.9,42.4,244.8,42.8,243.3,42.8z M250.4,31.6l2.1,0.3v16.8h-2.1V31.6z"/>
		<path fill="#0B4DA0" d="M248.3,48.1c0.9-0.4,1.9-0.6,2.9-0.6c1.3,0,2.3,0.3,3.1,0.9c0.7,0.6,1.1,1.5,1.1,2.6    c0,1.1-0.4,1.9-1.3,2.6s-2,0.9-3.5,0.9c-1.5,0-3-0.4-4.2-1.1s-2.5-1.8-3.7-3.3l1.7-1.1c1.1,1.3,2.1,2.3,3,2.8s2,0.8,3.3,0.8    c1.9,0,2.8-0.6,2.8-1.8c0-0.5-0.2-0.9-0.6-1.1c-0.4-0.3-0.9-0.4-1.5-0.4c-0.8,0-1.6,0.2-2.4,0.6L248.3,48.1z"/>
		<path fill="#0B4DA0" d="M271,35.5c1.6-1.2,3.7-2.5,6.2-3.9l1.1,1.8c-2.4,1.4-4.4,2.6-5.9,3.7c0.8,1,1.4,2,1.7,3c0.4,1,0.6,2,0.6,3    c0,1.5-0.4,2.6-1.2,3.5c-0.8,0.8-1.9,1.3-3.4,1.3c-1.5,0-2.6-0.4-3.4-1.3c-0.8-0.8-1.2-1.9-1.2-3.2c0-1.2,0.3-2.4,1-3.4    c0.6-1,1.7-2.1,3.1-3.2c-0.7-0.7-1.5-1.4-2.4-1.9s-1.8-0.8-2.7-1.1c0.4,0.8,0.7,1.7,0.7,2.7c0,0.8-0.2,1.5-0.6,2.1    c-0.4,0.7-0.9,1.2-1.6,1.5c-0.7,0.4-1.5,0.5-2.5,0.5c-1.4,0-2.5-0.4-3.3-1.2c-0.8-0.8-1.2-1.9-1.2-3.2c0-1.4,0.5-2.5,1.6-3.4    c1.1-0.9,2.5-1.3,4.3-1.3c1.8,0,3.4,0.3,5,0.9C268.3,33.2,269.7,34.2,271,35.5z M262.1,33.5c-0.1,0-0.2,0-0.3,0h-0.3    c-1.1,0-2,0.3-2.6,0.8c-0.6,0.5-0.9,1.2-0.9,2.1c0,0.7,0.2,1.3,0.6,1.7c0.4,0.4,1,0.6,1.7,0.6c0.8,0,1.4-0.2,1.9-0.7    c0.4-0.4,0.7-1,0.7-1.7C262.9,35.3,262.6,34.3,262.1,33.5z M270.7,38.2c-1,0.7-1.8,1.5-2.3,2.3c-0.6,0.8-0.8,1.7-0.8,2.8    c0,0.9,0.2,1.5,0.6,1.9c0.4,0.4,1,0.7,1.8,0.7c0.8,0,1.4-0.2,1.8-0.7s0.6-1.2,0.6-2.1c0-0.9-0.1-1.7-0.4-2.5    C271.8,39.7,271.3,38.9,270.7,38.2z"/>
		<path fill="#0B4DA0" d="M288.9,47.5c-1.3,0-2.5-0.4-3.6-1.1s-2.2-2.1-3.4-4c-0.2,0-0.5,0-0.7,0c-0.8,0-1.4-0.1-1.8-0.4    s-0.6-0.7-0.6-1.2c0-0.4,0.1-0.7,0.4-1s0.7-0.4,1.2-0.4c0.4,0,0.8,0.1,1.2,0.2c0.3,0.1,0.7,0.3,1,0.5c1.2-0.3,2.1-0.7,2.8-1.4    c0.7-0.6,1-1.4,1-2.3c0-1-0.3-1.7-0.9-2.3c-0.6-0.5-1.4-0.8-2.4-0.8c-0.6,0-1.2,0.1-1.8,0.2c-0.5,0.1-1.1,0.3-1.8,0.6l-0.7-1.8    c1.5-0.6,2.9-0.9,4.3-0.9c1.7,0,3,0.4,4,1.3s1.4,2.1,1.4,3.7c0,1.2-0.4,2.3-1.2,3.3c-0.8,1-1.9,1.7-3.3,2.1c0.7,1,1.3,1.7,1.8,2.2    c0.5,0.5,1,0.8,1.5,1s1.1,0.3,1.8,0.3h0.5l-0.2,2H288.9z"/>
		<path fill="#0B4DA0" d="M292.2,31.6l2.1,0.3v11.6c0,0.6,0,0.9,0.1,1.2c0.1,0.2,0.2,0.4,0.3,0.6s0.4,0.2,0.7,0.3s0.7,0.1,1.2,0.1    l-0.2,1.9h-0.3c-1,0-1.8-0.1-2.4-0.4c-0.6-0.3-1-0.7-1.2-1.2s-0.3-1.3-0.3-2.2V31.6z"/>
		<path fill="#0B4DA0" d="M307.3,38h-3.1c-1.1,0-1.9,0.1-2.4,0.2s-0.9,0.4-1.2,0.7s-0.5,0.8-0.5,1.4c0,0.8,0.3,1.6,0.9,2.5    c0.6,0.9,1.5,1.9,2.8,3l-1.4,1.4c-1.6-1.4-2.8-2.7-3.4-3.8c-0.7-1.1-1-2.2-1-3.3c0-0.7,0.2-1.4,0.6-2c0.4-0.6,1-1.1,1.8-1.5    c0.8-0.4,2-0.5,3.6-0.5h3.4v-4.5l2.1,0.3v11.6c0,0.6,0,0.9,0.1,1.2c0.1,0.2,0.2,0.4,0.3,0.6c0.2,0.1,0.4,0.2,0.7,0.3    s0.7,0.1,1.2,0.1l-0.2,1.9h-0.3c-1,0-1.8-0.1-2.4-0.4c-0.6-0.3-1-0.7-1.2-1.2c-0.2-0.5-0.3-1.3-0.3-2.2V38z"/>
		<path fill="#0B4DA0" d="M316.4,43.5c0,0.5,0,0.9,0.1,1.2c0.1,0.2,0.2,0.4,0.3,0.6c0.2,0.1,0.4,0.2,0.7,0.3s0.7,0.1,1.2,0.1l-0.2,2    h-0.3c-1,0-1.8-0.1-2.4-0.4c-0.6-0.3-1-0.7-1.2-1.2s-0.3-1.3-0.3-2.2V31.4c-0.2-1.7-0.7-3-1.3-4.1s-1.4-1.6-2.2-1.6    c-0.6,0-1,0.2-1.4,0.6s-0.5,1-0.5,1.8c0,0.7,0.1,1.6,0.3,2.4h-2c-0.3-1-0.4-1.9-0.4-2.7c0-1.2,0.3-2.2,1-3s1.6-1.1,2.7-1.1    c1.5,0,2.7,0.6,3.8,1.9c1,1.3,1.7,3.1,2.1,5.4V43.5z"/>
	</g>
	<g>
		<path fill="#FF8000" d="M283,72.7c0.2,0.4,0.3,0.7,0.3,1c0,0.4-0.1,0.7-0.3,1h4.1v1.4l-2,0c0.5,0.3,0.8,0.7,1.1,1.1    c0.3,0.5,0.4,1,0.4,1.5c0,1.2-0.4,2.1-1.2,2.7s-2,1-3.5,1c-1.4,0-2.5-0.3-3.3-1s-1.2-1.6-1.2-2.7c0-1.1,0.5-2,1.4-2.7l-1.9,0v-1.4    h4.2c0.3-0.3,0.5-0.6,0.5-1c0-0.3-0.1-0.7-0.3-1H277v-1.6h6c0.7,0,1.2,0,1.6-0.1s0.6-0.2,0.8-0.4c0.2-0.2,0.3-0.5,0.3-0.8    c0-0.9-0.4-1.7-1.3-2.6l1.3-0.9c0.5,0.6,1,1.2,1.2,1.8s0.4,1.2,0.4,1.8c0,0.5-0.1,0.9-0.4,1.4c-0.2,0.4-0.6,0.8-1.1,1    c-0.5,0.3-1.3,0.4-2.4,0.4H283z M282,76.1c-1,0-1.7,0.2-2.2,0.7c-0.5,0.4-0.8,1-0.8,1.8c0,0.7,0.3,1.3,0.8,1.7    c0.5,0.4,1.2,0.6,2.2,0.6c1,0,1.7-0.2,2.2-0.6s0.8-1,0.8-1.7c0-0.8-0.3-1.4-0.8-1.8C283.7,76.3,283,76.1,282,76.1z"/>
		<path fill="#FF8000" d="M291.1,81.9l-1.6,0.6c-0.3-0.5-0.6-1-0.8-1.5c-0.2-0.6-0.3-1.1-0.3-1.7c0-0.9,0.3-1.7,0.9-2.3    s1.3-0.9,2.1-0.9c0.7,0,1.3,0.2,1.8,0.5c0.5,0.3,1,0.9,1.6,1.9c0.4,0.7,0.7,1.2,1,1.5c0.2,0.3,0.5,0.5,0.8,0.7s0.7,0.2,1.1,0.2    c0.6,0,1.1-0.2,1.4-0.7c0.3-0.4,0.5-1,0.5-1.8c0-1.3-0.4-2.5-1.2-3.6c-0.8-1.1-1.9-1.8-3.2-2.1h-6.7v-1.6h8.5c0.7,0,1.2,0,1.6-0.1    s0.6-0.2,0.8-0.4s0.3-0.5,0.3-0.8c0-0.9-0.4-1.7-1.3-2.6l1.3-0.9c0.5,0.6,1,1.2,1.2,1.8s0.4,1.2,0.4,1.8c0,0.7-0.2,1.4-0.7,1.9    c-0.5,0.5-1.3,0.8-2.3,0.9c1,0.7,1.7,1.5,2.2,2.4c0.5,1,0.8,2,0.8,3.1c0,1.3-0.3,2.4-1,3.1c-0.7,0.7-1.6,1.1-2.7,1.1    c-0.6,0-1.1-0.1-1.5-0.3s-0.8-0.5-1.2-0.9s-0.7-0.9-1.1-1.6c-0.3-0.6-0.6-1-0.8-1.3c-0.2-0.3-0.4-0.5-0.7-0.6    c-0.2-0.1-0.5-0.2-0.8-0.2c-0.4,0-0.8,0.1-1,0.4c-0.3,0.3-0.4,0.7-0.4,1.2C290.1,80.1,290.4,80.9,291.1,81.9z"/>
		<path fill="#FF8000" d="M302.1,86.2c0.3-0.3,0.5-0.6,0.6-1c0.1-0.4,0.2-0.8,0.2-1.2c0-0.9-0.2-1.8-0.6-2.5l1.3-0.7    c0.2,0.4,0.4,0.8,0.6,1.3c0.1,0.5,0.2,1.1,0.2,1.6c0,0.8-0.1,1.4-0.4,2c-0.3,0.6-0.7,1.1-1.2,1.6c0.2,0.3,0.4,0.5,0.6,0.7    c0.2,0.1,0.5,0.2,0.9,0.2c0.1,0,0.2,0,0.4,0c0.2,0,0.3-0.1,0.3-0.1l0.3,1.4c-0.1,0.1-0.3,0.1-0.5,0.1c-0.2,0-0.4,0-0.5,0    c-0.6,0-1.1-0.1-1.6-0.4c-0.4-0.2-0.8-0.6-1.1-1.2c-0.8,0.4-1.7,0.6-2.7,0.6c-1,0-1.8-0.2-2.4-0.7c-0.6-0.5-0.8-1.1-0.8-1.9    c0-0.7,0.3-1.3,0.8-1.8c0.5-0.4,1.2-0.7,2-0.7c0.8,0,1.4,0.2,1.9,0.5C300.9,84.4,301.5,85.1,302.1,86.2z M301,86.9    c-0.4-0.8-0.8-1.3-1.2-1.6c-0.4-0.3-0.8-0.5-1.3-0.5c-0.4,0-0.7,0.1-0.9,0.3c-0.2,0.2-0.3,0.5-0.3,0.8c0,0.4,0.2,0.8,0.5,1    c0.3,0.2,0.8,0.3,1.4,0.3C299.8,87.3,300.5,87.2,301,86.9z"/>
		<path fill="#FF8000" d="M318.1,75.4c0,0.1,0,0.3,0,0.4c0.3,0.4,0.4,0.8,0.6,1.3s0.2,0.9,0.2,1.4c0,1.2-0.3,2.1-1,2.8    c-0.7,0.7-1.5,1.1-2.6,1.1c-0.8,0-1.5-0.1-2-0.4c-0.5-0.3-1-0.7-1.4-1.4c-0.3,0.6-0.7,1-1.3,1.3c-0.5,0.3-1.2,0.5-2.1,0.5    c-1.1,0-2-0.4-2.6-1.2s-0.9-2-0.9-3.4c0-1.2,0.2-2.2,0.7-3.1s1.1-1.6,2-2.1H305v-1.6h9.6c0.7,0,1.2,0,1.5-0.1s0.6-0.2,0.8-0.4    c0.2-0.2,0.3-0.5,0.3-0.9c0-0.9-0.4-1.7-1.3-2.6l1.3-0.9c0.5,0.6,1,1.2,1.2,1.8s0.4,1.2,0.4,1.8c0,0.7-0.2,1.2-0.6,1.7    s-1,0.8-1.8,0.9c0.5,0.3,0.9,0.7,1.2,1.2S318.1,74.8,318.1,75.4z M311.1,78.5h1.5c0.1,0.7,0.4,1.3,0.8,1.7c0.4,0.4,1,0.6,1.6,0.6    c0.7,0,1.2-0.2,1.6-0.6s0.6-1,0.6-1.7c0-0.3,0-0.7-0.1-1.1c-0.6,0.6-1.3,0.9-2.1,0.9c-0.7,0-1.3-0.2-1.8-0.6s-0.7-0.9-0.7-1.6    c0-0.6,0.2-1.1,0.6-1.5c0.4-0.4,1-0.5,1.6-0.5c0.6,0,1.1,0.1,1.5,0.3c-0.3-0.5-0.8-1-1.5-1.3c-0.7-0.3-1.5-0.5-2.5-0.5h-0.7    c-1.6,0-2.8,0.5-3.7,1.4c-0.9,0.9-1.4,2.2-1.4,3.7c0,1,0.2,1.8,0.5,2.3c0.3,0.5,0.9,0.8,1.6,0.8c0.6,0,1.1-0.2,1.5-0.6    S311,79.3,311.1,78.5z M316.6,76.1c-0.4-0.5-0.9-0.7-1.5-0.7c-0.3,0-0.5,0.1-0.7,0.2c-0.2,0.1-0.3,0.3-0.3,0.6    c0,0.6,0.3,0.9,1,0.9c0.3,0,0.6-0.1,0.9-0.3C316.3,76.6,316.5,76.4,316.6,76.1z"/>
	</g>
	<g>
		<path fill="#9DA1C6" d="M31.7,211.8c0.9,2.8,2.9,4.9,6.1,6.3s7.1,2.2,12,2.2c5.3,0,9.5-0.9,12.6-2.6c3.1-1.7,5-4.2,5.7-7.5    c-1.9,1.8-4.2,2.7-6.9,2.7c-2.6,0-4.7-0.7-6.3-2.2s-2.4-3.4-2.4-5.9c0-1.8,0.6-3.5,1.8-4.9s2.8-2.3,4.8-2.7    c-1.7-0.4-3.9-0.7-6.6-0.7l1.5-4.8c6.4,0.9,11.2,2.8,14.4,5.6c3.2,2.8,4.8,6.6,4.8,11.3c0,5.2-2,9.3-5.9,12.3    c-3.9,3-9.6,4.5-17,4.5c-7.5,0-13.3-1.5-17.4-4.4s-6.2-7-6.2-12c0-3.8,1.1-7,3.4-9.4s5.1-3.7,8.6-3.7c2.7,0,4.9,0.7,6.4,2.2    c1.6,1.5,2.4,3.4,2.4,5.9c0,2.7-0.9,4.9-2.8,6.5c-1.9,1.6-4.4,2.4-7.6,2.4C34.9,212.9,33.1,212.5,31.7,211.8z M31.3,206.9    c1.4,0.9,3,1.3,4.8,1.3c4,0,6-1.4,6-4.2c0-1.1-0.3-2-1-2.6c-0.7-0.6-1.6-0.9-2.9-0.9c-1.8,0-3.2,0.6-4.4,1.7    C32.5,203.4,31.7,204.9,31.3,206.9z M32.1,184.7v-4.9h25.6c2.6,0,4.6,0.2,5.9,0.5c1.4,0.3,2.5,0.9,3.4,1.6    c0.9,0.7,1.6,1.6,2.1,2.6c0.5,1,0.7,2.3,0.7,3.7c0,1.3-0.3,2.5-0.8,3.7s-1.3,2.1-2.3,2.8c-1,0.7-2.2,1.2-3.5,1.5s-3.2,0.4-5.5,0.4    H51v-4.9h7.4c1.7,0,2.9-0.1,3.7-0.4c0.8-0.2,1.3-0.6,1.7-1.2c0.4-0.5,0.6-1.2,0.6-1.9c0-0.9-0.2-1.6-0.7-2.2c-0.4-0.6-1-1-1.8-1.1    c-0.7-0.2-1.8-0.3-3.3-0.3H32.1z M67.8,204.3c-0.6-1.2-1.4-2.1-2.4-2.7c-1-0.6-2.1-1-3.3-1c-1.3,0-2.3,0.3-3.1,1    c-0.8,0.7-1.2,1.6-1.2,2.8c0,1.2,0.4,2.1,1.1,2.8c0.8,0.7,1.8,1,3.2,1c1.4,0,2.6-0.4,3.6-1.1C66.7,206.5,67.4,205.5,67.8,204.3z"/>
		<path fill="#9DA1C6" d="M82.8,207.7c0.2,3.9,1.7,7,4.5,9.2c2.8,2.3,6.5,3.4,11.3,3.4c4.9,0,8.7-1,11.5-3.1c2.7-2.1,4.1-5,4.1-8.7    c0-2.6-0.7-4.9-2.2-6.9c-1.5-2-3.7-3.6-6.6-4.8l2.6-5c3.8,1.7,6.7,3.9,8.7,6.8c2,2.8,3,6.1,3,9.6c0,5.4-1.8,9.6-5.4,12.7    c-3.6,3.1-8.8,4.6-15.5,4.6c-6.6,0-11.7-1.7-15.5-5c-3.7-3.3-5.6-7.8-5.6-13.5c0-4.6,1.2-8.3,3.5-11.1c2.3-2.7,5.3-4.1,9-4.1    c2.6,0,4.7,0.8,6.3,2.3c1.6,1.5,2.4,3.5,2.4,6.1c0,2.8-0.9,5.1-2.7,6.7c-1.8,1.6-4.3,2.4-7.6,2.4    C86.6,209.2,84.6,208.7,82.8,207.7z M83.1,203c1.5,1,3.2,1.6,5.2,1.6c1.8,0,3.1-0.4,4-1.1s1.3-1.8,1.3-3.1c0-1.2-0.3-2.2-1-2.9    c-0.7-0.7-1.6-1.1-2.8-1.1c-1.7,0-3.1,0.6-4.3,1.7C84.3,199.3,83.5,200.9,83.1,203z"/>
		<path fill="#9DA1C6" d="M116,217.4l2.6-4.2c1.8,2.4,3.6,4.2,5.5,5.4c1.8,1.2,3.8,1.8,5.9,1.8c2.2,0,4-0.7,5.1-2.1    c1.2-1.4,1.8-3.5,1.8-6.2c0-3.3-0.9-6.1-2.8-8.6c-1.9-2.5-4.8-4.7-8.7-6.5l2.4-5.1c4.5,2,8.1,4.7,10.7,8.2    c2.6,3.5,3.9,7.4,3.9,11.6c0,4.4-1.1,7.8-3.3,10.2c-2.2,2.4-5.4,3.6-9.5,3.6c-2.7,0-5.1-0.7-7.4-2    C119.9,222.1,117.9,220.1,116,217.4z"/>
		<path fill="#9DA1C6" d="M169.8,222.7c2.1-3,3.5-5.5,4.2-7.6c0.7-2.1,1-4.2,1-6.5c0-3.9-1-6.8-2.9-8.8s-4.7-3-8.4-3    c-3.4,0-6,1-8,3.1c-1.9,2.1-2.9,5-2.9,8.7c0,2.5,0.4,4.9,1.2,7.2s2.1,4.6,3.9,7l-5.5,2.4c-3.4-5.3-5.1-10.8-5.1-16.6    c0-3.2,0.7-6.1,2.1-8.7c1.4-2.6,3.3-4.6,5.9-6c2.5-1.4,5.5-2.1,8.8-2.1c5.1,0,9.1,1.4,12,4.3c2.9,2.9,4.3,6.8,4.3,11.8    c0,3.1-0.4,5.9-1.1,8.6s-2.1,5.6-4,8.7L169.8,222.7z M158.2,185.8c0.4,1.6,0.8,2.9,1.3,3.8c0.4,0.9,0.8,1.5,1.3,1.8    c0.5,0.3,1,0.5,1.7,0.5c0.9,0,1.7-0.3,2.4-0.8c0.8-0.5,1.9-1.7,3.3-3.5l2-2.6c2.3-3,4.3-5,6.2-6.1c1.9-1.1,4.2-1.7,6.9-1.7    l0.4,5.1c-1.5,0.1-2.8,0.3-3.7,0.7s-1.8,0.9-2.6,1.6s-1.9,2-3.3,3.8l-1.5,2c-1.8,2.3-3.5,4-5.1,5.1c-1.6,1.1-3.4,1.6-5.4,1.6    c-2.5,0-4.5-0.8-6-2.4c-1.5-1.6-2.6-3.9-3.4-6.8L158.2,185.8z"/>
		<path fill="#9DA1C6" d="M177,217.4l2.6-4.2c1.8,2.4,3.6,4.2,5.5,5.4c1.8,1.2,3.8,1.8,5.9,1.8c2.2,0,4-0.7,5.1-2.1    c1.2-1.4,1.8-3.5,1.8-6.2c0-3.3-0.9-6.1-2.8-8.6c-1.9-2.5-4.8-4.7-8.7-6.5l2.4-5.1c4.5,2,8.1,4.7,10.7,8.2    c2.6,3.5,3.9,7.4,3.9,11.6c0,4.4-1.1,7.8-3.3,10.2c-2.2,2.4-5.4,3.6-9.5,3.6c-2.7,0-5.1-0.7-7.4-2    C181,222.1,178.9,220.1,177,217.4z"/>
	</g>
	<g>
		<path fill="#F98199" d="M14.6,27.9h44.6v6.2h-16v13.1c8.1,0.2,14.1,2,18,5.3c3.9,3.3,5.9,8.1,5.9,14.5c0,3.3-0.6,6.3-1.8,8.8    c-1.2,2.6-3.2,4.9-5.9,7c-2.7,2.1-6,3.5-9.8,4.4s-9.2,1.3-16,1.3h-9.5c-2.2,0-4,0.1-5.3,0.4c-1.3,0.3-2.5,0.8-3.5,1.4    c-1,0.7-1.8,1.6-2.3,2.8c-0.5,1.2-0.8,2.6-0.8,4.5c0,1.9,0.1,3.5,0.3,4.7l-7.1,0.3C5.2,100,5,97.8,5,95.9c0-2.9,0.6-5.3,1.9-7.3    c1.2-2,3-3.6,5.4-4.6c2.3-1.1,5.5-1.6,9.6-1.6h9.3c7.7,0,13.4-0.5,17.2-1.5c3.8-1,6.6-2.7,8.6-5.1c2-2.4,2.9-5.6,2.9-9.5    c0-4.1-1.3-7.2-4-9.4s-6.9-3.4-12.6-3.6v2.7c0,5.8-0.8,10-2.5,12.7s-3.9,4.6-6.8,5.8s-6.4,1.7-10.7,1.7c-5.3,0-9.7-1.3-13-3.9    c-3.4-2.6-5.1-6-5.1-10.4c0-3,0.8-5.6,2.4-7.7c1.6-2.1,3.9-3.7,7.1-4.9V27.9z M36,53.1h-7.3c-5.7,0-9.8,0.7-12.4,2.1    c-2.5,1.4-3.8,3.7-3.8,6.9c0,2.5,1,4.4,3,5.8c2,1.4,4.8,2.1,8.3,2.1c4.4,0,7.5-1.1,9.4-3.2c1.8-2.1,2.8-5.4,2.8-9.8V53.1z     M29.3,47.2H36V34.1H21.3v13.6C23.7,47.3,26.3,47.2,29.3,47.2z"/>
		<path fill="#F98199" d="M78.9,75.2V27.9h7.4V69h19.3V44.9c0-4.6,0.6-8.1,1.7-10.6c1.1-2.5,2.8-4.4,5.1-5.6    c2.3-1.3,5.1-1.9,8.6-1.9c6,0,10.6,2.3,13.8,6.8c3.2,4.5,4.8,11,4.8,19.2c0,3.7-0.4,6.9-1.2,9.8c-0.8,2.8-2.1,5.2-3.8,7.1    s-4,3.3-6.8,4.2s-6.9,1.3-12.6,1.3H78.9z M112.9,69h4c3.7,0,6.6-0.5,8.8-1.5c2.2-1,3.7-2.6,4.8-4.9c1-2.3,1.5-5.7,1.5-10.2    c0-6.1-1-10.9-2.9-14.3c-1.9-3.4-4.7-5.2-8.3-5.2c-2,0-3.6,0.6-4.9,1.8c-1.3,1.2-2.1,2.6-2.4,4.4s-0.5,4.3-0.5,7.5V69z"/>
		<path fill="#F98199" d="M121.5,31.3c-0.8-1.5-1.4-3.1-1.8-5c-0.4-1.9-0.6-3.7-0.6-5.4c0-5.5,1.8-9.8,5.3-13s8.1-4.7,13.8-4.7    c4.6,0,8.7,1.1,12,3.4c3.4,2.3,5.8,5.3,7.3,9.3c1.5,3.9,2.3,9.4,2.3,16.4v42.8h-7.4V35c0-6.6-0.5-11.6-1.4-14.9    c-0.9-3.4-2.5-5.9-4.7-7.7c-2.2-1.8-5-2.7-8.3-2.7c-3.6,0-6.4,1-8.4,3s-3,4.7-3,8.1c0,3.8,1,7.3,2.9,10.4H121.5z"/>
		<path fill="#F98199" d="M214.9,89.3c-0.1,0.2-0.4,0.6-0.7,1.4c-1.4,2.6-2.9,4.7-4.5,6.4c-1.7,1.7-3.9,3-6.6,4s-6.4,1.5-10.8,1.5    h-2.1c-3.3,0-6.3-0.5-9.2-1.4c-2.9-0.9-5-2.3-6.4-4c-1.3-1.8-2-3.8-2-6.1c0-3.2,1.2-5.8,3.6-7.8c2.4-2,5.7-2.9,9.7-2.9    c2.1,0,4.1,0.2,6,0.5l-0.6,5.7c-1.4-0.2-2.8-0.3-4.2-0.3c-2.3,0-4.1,0.4-5.3,1.2c-1.2,0.8-1.8,2-1.8,3.5c0,1.9,0.9,3.3,2.8,4.3    c1.8,1,4.5,1.4,8.1,1.4h2.1c3.8,0,6.9-0.6,9.3-1.9c2.4-1.3,4.4-3.5,5.9-6.5l0.5-1c-4.7-2.1-7.1-6.1-7.3-12h-26.6V27.9h7.4V69h19.3    V44.9c0-4.6,0.6-8.1,1.7-10.6c1.1-2.5,2.8-4.4,5.1-5.6c2.3-1.3,5.1-1.9,8.6-1.9c6,0,10.6,2.3,13.8,6.8c3.2,4.5,4.8,11,4.8,19.2    c0,3.8-0.4,7.1-1.2,9.9c-0.8,2.8-2.1,5.2-3.9,7.1c-1.8,1.9-4.1,3.3-6.9,4.1c-2.8,0.8-6.5,1.3-11.2,1.3h-3.5c0,2.1,0.4,3.7,1.2,4.9    s1.9,2,3.5,2.4s3.5,0.7,6.1,0.7h10.9v6.2H214.9z M209.6,11.6c0,1.7-0.5,3-1.6,4.1c-1.1,1.1-2.5,1.6-4.1,1.6s-3-0.5-4.1-1.6    s-1.6-2.5-1.6-4.1c0-1.6,0.5-3,1.6-4.1c1.1-1.1,2.4-1.6,4.1-1.6c1.7,0,3,0.5,4.1,1.6C209.1,8.6,209.6,10,209.6,11.6z M208.7,69h4    c3.7,0,6.6-0.5,8.8-1.5c2.2-1,3.7-2.6,4.8-4.9c1-2.3,1.5-5.7,1.5-10.2c0-6.1-1-10.9-2.9-14.3c-1.9-3.4-4.7-5.2-8.3-5.2    c-2,0-3.6,0.6-4.9,1.8c-1.3,1.2-2.1,2.6-2.4,4.4s-0.5,4.3-0.5,7.5V69z"/>
	</g>
	<g>
		<path fill="#4394A7" d="M24.6,142.2h-3.1c-1.3-2.5-3.3-4.7-5.8-6.5c-2.5-1.8-5.4-2.9-8.5-3.5l-1.6-3.9c2.8-1.6,5.5-3,8.1-4.2    s5.2-2.2,7.8-3v-1.4H3.7v-2.9h25.2v2.9h-4.3V142.2z M21.5,124.2c-2.2,0.8-4.4,1.6-6.4,2.5c-2,0.9-3.9,1.9-5.7,3    c2.6,0.6,5,1.6,7.2,3.1s3.9,3.1,5,4.9c-0.1-1.1-0.1-2.2-0.1-3.3V124.2z"/>
		<path fill="#4394A7" d="M35.5,142.2h-3.1V123c-0.4-1.1-0.9-1.9-1.6-2.5c-0.7-0.6-1.5-0.9-2.3-0.9H28v-2.9h0.7    c0.7,0,1.4,0.2,2.1,0.7c0.7,0.5,1.2,1.1,1.7,1.9c-0.1-0.6-0.1-1.4-0.1-2.2v-3.1h2.2l0.9,2.7h4.3v2.9h-4.3V142.2z"/>
		<path fill="#4394A7" d="M44.8,129.3c2.3,1.4,4.6,3.3,6.8,5.6c2.2,2.3,4,4.8,5.5,7.5l-2.7,1.4c-2-3-3.8-5.4-5.5-7.1    c-1.7-1.7-3.8-3.3-6.1-4.7L44.8,129.3z M48.7,116.8c1.6,0,3,0.5,4.1,1.6c1.1,1.1,1.7,2.4,1.7,4s-0.5,2.9-1.6,4    c-1.1,1.1-2.5,1.6-4.1,1.6c-1.6,0-3-0.5-4.1-1.6c-1.1-1.1-1.6-2.4-1.6-4c0-1.6,0.5-2.9,1.6-4C45.7,117.3,47,116.8,48.7,116.8z     M48.7,125.2c0.8,0,1.5-0.3,2.1-0.8c0.6-0.6,0.8-1.3,0.8-2.1c0-0.8-0.3-1.5-0.8-2.1c-0.6-0.6-1.3-0.8-2.1-0.8    c-0.9,0-1.6,0.3-2.1,0.8c-0.6,0.6-0.8,1.3-0.8,2.1c0,0.9,0.3,1.6,0.8,2.1C47.1,125,47.8,125.2,48.7,125.2z"/>
		<path fill="#4394A7" d="M84,142.2h-3.1v-12.9c-0.7-0.9-1.3-1.6-1.9-2c-0.6-0.4-1.3-0.6-1.9-0.6c-0.9,0-1.6,0.3-2,0.8    c-0.5,0.5-0.7,1.3-0.7,2.2c0,0.5,0,1,0.1,1.5l-2.7,0.2c-0.2-1.6-0.7-2.9-1.7-3.8c-0.9-0.9-2-1.4-3.3-1.4c-1.1,0-1.9,0.3-2.5,0.9    c-0.6,0.6-1,1.4-1,2.3c0,1,0.4,1.9,1.2,2.7c0.8,0.8,1.9,1.4,3.5,2l-1.1,3c-2.2-0.7-3.9-1.7-5.1-3.1c-1.2-1.4-1.8-3-1.8-4.8    c0-1.7,0.6-3.2,1.9-4.3c1.3-1.1,2.8-1.7,4.7-1.7c1.3,0,2.5,0.2,3.5,0.7c1,0.5,1.9,1.2,2.7,2.2c0.3-0.7,0.9-1.2,1.6-1.6    c0.7-0.4,1.4-0.6,2.2-0.6c0.8,0,1.5,0.1,2.2,0.4c0.7,0.3,1.4,0.7,2.3,1.5c0-0.8-0.1-1.7-0.1-2.5v-3.4H57.6v-2.9h30.7v2.9H84V142.2    z"/>
		<path fill="#4394A7" d="M94.9,142.2h-3.1V123c-0.4-1.1-0.9-1.9-1.6-2.5c-0.7-0.6-1.5-0.9-2.3-0.9h-0.4v-2.9h0.7    c0.7,0,1.4,0.2,2.1,0.7c0.7,0.5,1.2,1.1,1.7,1.9c-0.1-0.6-0.1-1.4-0.1-2.2v-3.1H94l0.9,2.7h4.3v2.9h-4.3V142.2z"/>
	</g>
	<g>
		<path fill="#8A846A" d="M50.2,153.5c-0.1-0.2-0.3-0.4-0.6-0.5c-0.1,0.1-0.2,0.1-0.3,0.2s-0.3,0.1-0.4,0.1c-0.4,0-0.7-0.1-0.9-0.3    s-0.4-0.6-0.6-1l0.5-0.1c0.1,0.4,0.3,0.6,0.4,0.8s0.3,0.3,0.6,0.3c0.2,0,0.3,0,0.4-0.1s0.1-0.2,0.1-0.3c0-0.1,0-0.2-0.1-0.2    c-0.1-0.1-0.1-0.1-0.2-0.1c-0.1,0-0.1,0-0.1,0c0,0,0,0.1,0,0.1c0,0,0,0.1,0,0.1l-0.5,0.1c-0.1-0.1-0.1-0.2-0.1-0.3    c0-0.2,0.1-0.3,0.2-0.4c0-0.1-0.1-0.2-0.3-0.2h-1.1v-0.4h3.9v0.4h-0.4v2H50.2z M49.8,152.7c0.1,0.1,0.3,0.2,0.4,0.3    c0-0.1,0-0.2,0-0.3v-1.2h-1.3c0,0,0.1,0.1,0.1,0.1c0.3,0,0.5,0.1,0.6,0.2c0.2,0.2,0.2,0.3,0.2,0.6    C49.8,152.5,49.8,152.6,49.8,152.7z"/>
		<path fill="#8A846A" d="M51.1,151.7l0.1-0.2H51v-0.4h2.9v0.4h-0.4v2H53v-1.2c-0.1-0.1-0.1-0.1-0.2-0.1c0,0-0.1,0-0.1,0    c0,0-0.1,0-0.1,0.1c0,0-0.1,0.1-0.2,0.3c-0.1,0.2-0.2,0.3-0.3,0.4c-0.1,0.1-0.2,0.1-0.3,0.1c-0.1,0-0.3,0-0.4-0.1    c-0.1-0.1-0.2-0.2-0.3-0.4l0.4-0.2c0.1,0.1,0.1,0.1,0.1,0.2c0,0,0.1,0.1,0.1,0.1c0,0,0.1,0,0.1,0c0,0,0.1-0.1,0.1-0.1    c0-0.2-0.1-0.4-0.1-0.5s-0.1-0.1-0.2-0.2S51.4,151.8,51.1,151.7z M51.8,151.5c0.1,0,0.2,0.1,0.3,0.2c0.1,0.1,0.1,0.2,0.1,0.4    c0.1-0.1,0.1-0.2,0.2-0.2c0.1,0,0.1-0.1,0.2-0.1c0.1,0,0.1,0,0.2,0c0,0,0.1,0.1,0.2,0.1c0-0.1,0-0.1,0-0.2v-0.2H51.8z"/>
		<path fill="#8A846A" d="M54.6,152c0-0.1-0.1-0.1-0.2-0.2s-0.3-0.1-0.5-0.1l0.1-0.2h-0.2v-0.4h2.7v0.4h-0.4v2h-0.5v-0.6    c-0.3-0.3-0.5-0.5-0.8-0.5c-0.1,0-0.1,0-0.2,0.1c0,0-0.1,0.1-0.1,0.1c0,0.1,0,0.1,0.1,0.2c0,0,0.1,0.1,0.2,0.1l-0.2,0.4    c-0.2-0.1-0.3-0.2-0.4-0.3s-0.2-0.3-0.2-0.4c0-0.2,0.1-0.3,0.2-0.4S54.4,152,54.6,152z M54.7,151.5c0.1,0.1,0.2,0.1,0.3,0.2    c0.1,0.1,0.1,0.2,0.1,0.4c0.1,0.1,0.3,0.1,0.4,0.3v-0.9H54.7z"/>
		<path fill="#8A846A" d="M57.3,153.5h-0.5v-2h-0.4v-0.4h0.4c0-0.3-0.2-0.5-0.4-0.6s-0.6-0.2-1-0.2c-0.2,0-0.3,0-0.4,0    c-0.1,0-0.1,0.1-0.1,0.1c0,0,0,0,0,0c0,0,0.1,0,0.2,0h0.4c0.2,0,0.3,0,0.4,0.1s0.2,0.1,0.2,0.2s0.1,0.2,0.1,0.4h-0.5    c0-0.1,0-0.1-0.1-0.2s-0.1-0.1-0.2-0.1H55c-0.3,0-0.5,0-0.6-0.1c-0.1-0.1-0.2-0.2-0.2-0.3c0-0.2,0.1-0.3,0.3-0.4    c0.2-0.1,0.5-0.1,0.9-0.1c0.6,0,1,0.1,1.4,0.3c0.3,0.2,0.5,0.5,0.5,0.9h0.4v0.4h-0.4V153.5z"/>
		<path fill="#8A846A" d="M57.6,151.1h2.7v0.4h-0.4v2h-0.5c-0.2-0.2-0.3-0.3-0.6-0.4c-0.2-0.1-0.5-0.2-0.9-0.2l-0.2-0.4    c0.3-0.2,0.5-0.3,0.7-0.4c-0.2-0.1-0.5-0.2-0.8-0.3l0.1-0.2h-0.2V151.1z M58.3,153.1c0.1,0,0.2,0,0.2,0.1c0.1,0.1,0.1,0.1,0.1,0.2    c0,0.1,0,0.2-0.1,0.2c-0.1,0.1-0.1,0.1-0.2,0.1c-0.1,0-0.2,0-0.2-0.1c-0.1-0.1-0.1-0.1-0.1-0.2c0-0.1,0-0.2,0.1-0.2    C58.2,153.1,58.2,153.1,58.3,153.1z M59,152.2c-0.3,0.1-0.5,0.2-0.6,0.3c0.2,0,0.4,0.1,0.6,0.2c0.2,0.1,0.3,0.2,0.4,0.3    c0-0.1,0-0.1,0-0.3v-1.2h-1c0.2,0.1,0.4,0.2,0.6,0.4L59,152.2z"/>
		<path fill="#8A846A" d="M61.1,153.5h-0.5v-1.8c-0.1-0.2-0.2-0.3-0.4-0.3h0v-0.4h0.1c0.1,0,0.1,0,0.2,0.1c0,0,0.1,0.1,0.1,0.2    c0-0.1,0-0.1,0-0.2v-0.3H61l0.1,0.3h0.4v0.4h-0.4V153.5z"/>
	</g>
	<g>
		<path fill="#2C7149" d="M244.1,64.4c0.3-0.2,0.6-0.3,1-0.4c0.4-0.2,0.8-0.3,0.9-0.4c0.2-0.1,0.3-0.2,0.4-0.3    c0.1-0.1,0.1-0.3,0.1-0.4c0-0.2-0.1-0.4-0.2-0.5c-0.1-0.1-0.3-0.2-0.5-0.2c-0.3,0-0.4,0.1-0.6,0.2c-0.1,0.1-0.2,0.3-0.2,0.5    c0,0.2,0,0.4,0.1,0.5l-1.2,0.3c-0.1-0.3-0.2-0.6-0.2-0.9c0-0.5,0.2-0.9,0.6-1.3s0.9-0.5,1.4-0.5c0.6,0,1.1,0.2,1.5,0.5    c0.4,0.3,0.5,0.7,0.5,1.2c0,0.4-0.1,0.7-0.3,1s-0.4,0.5-0.7,0.7c0.4,0.1,0.6,0.4,0.8,0.7s0.3,0.6,0.3,1c0,0.7-0.2,1.2-0.7,1.6    c-0.5,0.4-1.2,0.6-2.1,0.6c-0.6,0-1.1-0.1-1.5-0.3s-0.8-0.4-1.2-0.7s-0.6-0.7-0.7-1.2c-0.2-0.5-0.3-1-0.3-1.6    c0-0.8,0.2-1.6,0.5-2.4c0.4-0.7,0.9-1.4,1.6-1.9l0.9,1c-0.6,0.4-1,0.9-1.3,1.4c-0.3,0.5-0.4,1.2-0.4,1.9c0,0.8,0.2,1.5,0.6,2    c0.4,0.5,1,0.7,1.8,0.7c0.5,0,0.9-0.1,1.1-0.3s0.4-0.4,0.4-0.7c0-0.3-0.1-0.5-0.3-0.6c-0.2-0.1-0.4-0.2-0.7-0.2    c-0.3,0-0.7,0.1-1,0.3L244.1,64.4z"/>
		<path fill="#2C7149" d="M252.6,64.3l0.8,0.8l-0.3,0.3c0.3,0.3,0.4,0.6,0.4,1.1c0,0.5-0.2,0.9-0.5,1.2c-0.4,0.3-0.8,0.5-1.5,0.5    c-0.4,0-0.8-0.1-1.1-0.2s-0.6-0.4-0.7-0.7c-0.2-0.3-0.3-0.6-0.3-1c0-0.1,0-0.2,0-0.3c-0.3-0.3-0.5-0.6-0.6-0.9    c-0.2-0.4-0.2-0.7-0.2-1.1c0-0.5,0.1-1,0.4-1.5c0.3-0.4,0.6-0.8,1.1-1c0.5-0.2,1.1-0.4,1.7-0.4c0.7,0,1.3,0.1,1.8,0.3    c0.5,0.2,0.9,0.6,1.1,1c0.3,0.4,0.4,1,0.4,1.6c0,0.3,0,0.6-0.1,1s-0.2,0.6-0.3,0.8l-1.1-0.5c0.2-0.4,0.3-0.8,0.3-1.2    c0-0.6-0.2-1-0.5-1.4c-0.4-0.3-0.9-0.5-1.5-0.5c-0.6,0-1.1,0.2-1.5,0.5s-0.5,0.7-0.5,1.2c0,0.3,0.1,0.6,0.2,0.9    c0.1-0.2,0.3-0.3,0.6-0.5l0.7,0.8c-0.2,0.1-0.4,0.3-0.5,0.4c-0.1,0.2-0.2,0.4-0.2,0.6c0,0.3,0.1,0.5,0.3,0.6    c0.2,0.2,0.4,0.2,0.7,0.2c0.3,0,0.5-0.1,0.6-0.2c0.1-0.1,0.2-0.2,0.2-0.4c0-0.1-0.1-0.3-0.2-0.3l-0.4,0.4l-0.8-0.8L252.6,64.3z     M251.6,70.3c-0.2,0-0.4-0.1-0.6-0.2c-0.2-0.2-0.2-0.3-0.2-0.6c0-0.2,0.1-0.4,0.2-0.6c0.2-0.2,0.3-0.2,0.6-0.2s0.4,0.1,0.6,0.2    c0.2,0.2,0.2,0.3,0.2,0.6c0,0.2-0.1,0.4-0.2,0.6S251.9,70.3,251.6,70.3z"/>
		<path fill="#2C7149" d="M248.6,60.2c1-0.9,2-1.4,3.2-1.4c1.2,0,2.2,0.5,3.2,1.4l-0.7,0.8c-0.4-0.4-0.9-0.7-1.3-0.8    c-0.4-0.2-0.8-0.2-1.3-0.2s-0.9,0.1-1.3,0.3c-0.4,0.2-0.8,0.4-1.2,0.8L248.6,60.2z"/>
		<path fill="#2C7149" d="M262.3,68h-1.2l0-1.1c-0.4,0.4-0.8,0.7-1.3,0.9c-0.5,0.2-1,0.3-1.5,0.3c-0.5,0-0.9-0.1-1.3-0.2    c-0.3-0.2-0.6-0.4-0.8-0.7c-0.2-0.3-0.3-0.7-0.3-1.1c0-0.5,0.2-1,0.5-1.3s0.9-0.7,1.6-0.9l0.1,0c0.3-0.1,0.5-0.2,0.7-0.3    c0.2-0.1,0.3-0.2,0.4-0.4s0.1-0.3,0.1-0.5c0-0.2,0-0.3-0.1-0.4c-0.1-0.1-0.2-0.1-0.3-0.1c-0.1,0-0.2,0-0.2,0.1    c-0.1,0-0.1,0.1-0.1,0.2c0,0.1,0,0.2,0,0.4v0.6h-1v-0.5c0-0.2,0-0.4,0-0.5s-0.1-0.1-0.1-0.2c-0.1,0-0.1-0.1-0.2-0.1    c-0.1,0-0.2,0-0.3,0.1c-0.1,0.1-0.1,0.2-0.1,0.3c0,0.2,0,0.4,0.1,0.6l-1,0.2c-0.1-0.4-0.2-0.7-0.2-1c0-0.4,0.1-0.7,0.3-1    c0.2-0.2,0.5-0.4,0.9-0.4c0.2,0,0.4,0,0.6,0.1s0.3,0.2,0.5,0.4c0.1-0.2,0.3-0.3,0.5-0.4c0.2-0.1,0.4-0.1,0.6-0.1    c0.4,0,0.8,0.1,1,0.4c0.3,0.3,0.4,0.7,0.4,1.2c0,0.3-0.1,0.6-0.2,0.9c-0.1,0.3-0.3,0.5-0.6,0.7c-0.3,0.2-0.6,0.4-1.1,0.6l-0.1,0    c-0.2,0.1-0.4,0.1-0.6,0.2s-0.3,0.1-0.4,0.2c-0.1,0.1-0.2,0.2-0.3,0.3c-0.1,0.1-0.1,0.3-0.1,0.4c0,0.3,0.1,0.5,0.3,0.6    c0.2,0.1,0.5,0.2,0.8,0.2c1,0,1.9-0.5,2.7-1.6v-4.2h1.2V68z M264.7,61.1V68h-1.2v-6.9H264.7z"/>
	</g>
	<g>
		<path fill="#FDA464" d="M335.9,152.5c-1,0.5-2,0.7-3.1,0.7c-1.2,0-2.3-0.4-3.2-1.1c-0.9-0.7-1.7-1.9-2.3-3.4    c0.6-0.5,1-0.9,1.2-1.4c0.2-0.5,0.4-0.9,0.4-1.5c0-0.3,0-0.7-0.1-1.1c-0.1-0.4-0.2-0.7-0.4-1h-2v-1.6h3.3c0.3,0.6,0.6,1.2,0.8,1.8    c0.2,0.6,0.3,1.2,0.3,1.8c0,1.2-0.4,2.2-1.2,3c0.5,1,1,1.7,1.5,2.1c0.5,0.4,1.2,0.6,1.9,0.6c0.5,0,1.1-0.1,1.5-0.2    c0.5-0.1,1-0.4,1.6-0.7v-8.4h4v1.6h-2.2v12.4h-1.8V152.5z"/>
		<path fill="#FDA464" d="M338.2,140.7c0.2-0.4,0.3-0.9,0.3-1.3c0-0.5-0.1-0.8-0.4-1.1c-0.3-0.2-0.7-0.4-1.2-0.4s-0.9,0.1-1.2,0.4    c-0.3,0.2-0.4,0.6-0.4,1.1c0,0.4,0.1,0.9,0.3,1.3l-1.5,0.2c-0.2-0.6-0.4-1.2-0.4-1.7c0-0.8,0.3-1.5,0.9-2c0.6-0.5,1.4-0.7,2.3-0.7    c1,0,1.8,0.2,2.4,0.7c0.6,0.5,0.9,1.2,0.9,2c0,0.5-0.1,1.1-0.4,1.7L338.2,140.7z"/>
		<path fill="#FDA464" d="M343.9,148h5.7v-4.2h-10.1v-1.6h14.1v1.6h-2.2v12.4h-1.8v-6.5h-5.7v6.5h-1.8v-6.5h-0.4    c-0.4,0-0.7-0.1-0.9-0.2s-0.3-0.4-0.3-0.6c0-0.3,0.1-0.7,0.4-1.1c0.3-0.4,0.6-0.7,1-1c0.4-0.3,0.7-0.4,1.1-0.4    c0.3,0,0.5,0.1,0.7,0.3s0.3,0.5,0.3,0.9V148z"/>
		<path fill="#FDA464" d="M358.9,143.8h-2v6.5h-1.8v-6.5h-1.8v-1.6h5.6V143.8z"/>
		<path fill="#FDA464" d="M372.5,142.2v1.6h-2.2v12.4h-1.8V154c-0.9,0.4-1.9,0.6-3,0.6c-1.3,0-2.5-0.3-3.5-1c-1-0.7-1.8-1.7-2.4-3    c0.3-0.4,0.7-0.9,1.2-1.3c0.5-0.4,1.1-0.8,1.7-1.1c-0.9-0.4-1.5-0.9-1.9-1.7s-0.6-1.7-0.6-2.8h-1.5v-1.6H372.5z M368.6,152.3v-3.4    h-2.8c-0.6,0-1.1,0.1-1.6,0.2s-0.8,0.3-1.2,0.6s-0.8,0.6-1.2,1c0.4,0.8,1,1.3,1.6,1.7c0.6,0.4,1.4,0.5,2.3,0.5    C366.7,153,367.7,152.7,368.6,152.3z M368.6,147.4v-3.6h-6.7c0,0.9,0.1,1.6,0.4,2.1c0.3,0.5,0.6,0.9,1,1.1c0.4,0.2,1.1,0.3,2,0.3    H368.6z"/>
		<path fill="#FDA464" d="M376.2,156.1h-1.8v-12.4h-2.2v-1.6h2.2v-0.7c0-1.1-0.1-1.9-0.2-2.3c-0.1-0.5-0.3-0.9-0.7-1.1    c-0.3-0.3-0.7-0.4-1.3-0.4c-0.7,0-1.3,0.2-1.6,0.6c-0.4,0.4-0.5,1-0.5,1.8c0,0.4,0,0.8,0.1,1.3l-1.8,0.2c-0.1-0.7-0.2-1.2-0.2-1.5    c0-1.2,0.4-2.2,1.1-2.9c0.7-0.7,1.7-1.1,2.9-1.1c1,0,1.8,0.2,2.4,0.6c0.6,0.4,1,1,1.2,1.7c0.2,0.7,0.3,1.6,0.3,2.8v1h2.2v1.6h-2.2    V156.1z"/>
	</g>
</g>
</svg>